<svg width="125" height="43" viewBox="0 0 125 43" fill="none" xmlns="http://www.w3.org/2000/svg">
    <path d="M25.4855 28.0001V12.6001H29.2255V28.0001H25.4855ZM15.9375 28.0001V12.6001H19.6775V28.0001H15.9375ZM17.3895 21.9941L17.4115 18.6501H27.4655V21.9941H17.3895ZM36.36 28.1981C35.3774 28.1981 34.4974 27.9414 33.72 27.4281C32.9574 26.9001 32.3487 26.1814 31.894 25.2721C31.4394 24.3481 31.212 23.3068 31.212 22.1481C31.212 20.9601 31.4394 19.9114 31.894 19.0021C32.3487 18.0928 32.972 17.3814 33.764 16.8681C34.556 16.3401 35.458 16.0761 36.47 16.0761C37.0274 16.0761 37.5334 16.1568 37.988 16.3181C38.4574 16.4794 38.868 16.7068 39.22 17.0001C39.572 17.2788 39.8727 17.6088 40.122 17.9901C40.3714 18.3568 40.5547 18.7528 40.672 19.1781L39.946 19.0901V16.3181H43.444V28.0001H39.88V25.1841L40.672 25.1621C40.5547 25.5728 40.364 25.9614 40.1 26.3281C39.836 26.6948 39.5134 27.0174 39.132 27.2961C38.7507 27.5748 38.3254 27.7948 37.856 27.9561C37.3867 28.1174 36.888 28.1981 36.36 28.1981ZM37.328 25.2281C37.8707 25.2281 38.34 25.1034 38.736 24.8541C39.132 24.6048 39.44 24.2528 39.66 23.7981C39.88 23.3288 39.99 22.7788 39.99 22.1481C39.99 21.5174 39.88 20.9748 39.66 20.5201C39.44 20.0508 39.132 19.6914 38.736 19.4421C38.34 19.1781 37.8707 19.0461 37.328 19.0461C36.8 19.0461 36.338 19.1781 35.942 19.4421C35.5607 19.6914 35.26 20.0508 35.04 20.5201C34.82 20.9748 34.71 21.5174 34.71 22.1481C34.71 22.7788 34.82 23.3288 35.04 23.7981C35.26 24.2528 35.5607 24.6048 35.942 24.8541C36.338 25.1034 36.8 25.2281 37.328 25.2281ZM45.89 28.0001V16.3181H49.234L49.388 20.1241L48.728 19.3981C48.904 18.7674 49.19 18.2028 49.586 17.7041C49.9967 17.2054 50.4733 16.8094 51.016 16.5161C51.5587 16.2228 52.138 16.0761 52.754 16.0761C53.018 16.0761 53.26 16.0981 53.48 16.1421C53.7147 16.1861 53.9273 16.2374 54.118 16.2961L53.15 20.1901C52.9887 20.0874 52.7687 20.0068 52.49 19.9481C52.226 19.8748 51.9473 19.8381 51.654 19.8381C51.3313 19.8381 51.0307 19.8968 50.752 20.0141C50.4733 20.1168 50.2387 20.2708 50.048 20.4761C49.8573 20.6814 49.7033 20.9234 49.586 21.2021C49.4833 21.4808 49.432 21.7961 49.432 22.1481V28.0001H45.89ZM55.2197 28.0001V16.3181H58.5637L58.6737 18.4301L58.2117 18.4521C58.3877 18.0708 58.6077 17.7334 58.8717 17.4401C59.1504 17.1468 59.4584 16.9048 59.7957 16.7141C60.1477 16.5088 60.507 16.3548 60.8737 16.2521C61.255 16.1494 61.6364 16.0981 62.0177 16.0981C62.5897 16.0981 63.1104 16.1861 63.5797 16.3621C64.049 16.5381 64.4597 16.8241 64.8117 17.2201C65.1637 17.6014 65.4424 18.1221 65.6477 18.7821L65.0977 18.7381L65.2737 18.3861C65.4644 18.0341 65.7064 17.7188 65.9997 17.4401C66.3077 17.1468 66.645 16.9048 67.0117 16.7141C67.3784 16.5088 67.7597 16.3548 68.1557 16.2521C68.5517 16.1494 68.933 16.0981 69.2997 16.0981C70.2237 16.0981 70.9937 16.2814 71.6097 16.6481C72.2257 17.0001 72.6877 17.5354 72.9957 18.2541C73.3184 18.9728 73.4797 19.8454 73.4797 20.8721V28.0001H69.9377V21.1581C69.9377 20.6888 69.8717 20.3001 69.7397 19.9921C69.6077 19.6841 69.4097 19.4568 69.1457 19.3101C68.8964 19.1488 68.581 19.0681 68.1997 19.0681C67.8917 19.0681 67.6057 19.1194 67.3417 19.2221C67.0924 19.3248 66.8724 19.4641 66.6817 19.6401C66.5057 19.8161 66.3664 20.0214 66.2637 20.2561C66.161 20.4908 66.1097 20.7548 66.1097 21.0481V28.0001H62.5677V21.1361C62.5677 20.6961 62.5017 20.3221 62.3697 20.0141C62.2377 19.7061 62.0397 19.4714 61.7757 19.3101C61.5117 19.1488 61.2037 19.0681 60.8517 19.0681C60.5437 19.0681 60.2577 19.1194 59.9937 19.2221C59.7444 19.3248 59.5244 19.4641 59.3337 19.6401C59.1577 19.8161 59.0184 20.0214 58.9157 20.2561C58.813 20.4908 58.7617 20.7474 58.7617 21.0261V28.0001H55.2197ZM81.2438 28.2201C80.0265 28.2201 78.9411 27.9561 77.9878 27.4281C77.0491 26.9001 76.3011 26.1814 75.7438 25.2721C75.2011 24.3628 74.9298 23.3214 74.9298 22.1481C74.9298 20.9748 75.2011 19.9334 75.7438 19.0241C76.3011 18.1148 77.0491 17.3961 77.9878 16.8681C78.9411 16.3401 80.0265 16.0761 81.2438 16.0761C82.4611 16.0761 83.5391 16.3401 84.4778 16.8681C85.4311 17.3961 86.1791 18.1148 86.7218 19.0241C87.2645 19.9334 87.5358 20.9748 87.5358 22.1481C87.5358 23.3214 87.2645 24.3628 86.7218 25.2721C86.1791 26.1814 85.4311 26.9001 84.4778 27.4281C83.5391 27.9561 82.4611 28.2201 81.2438 28.2201ZM81.2438 25.1841C81.7718 25.1841 82.2411 25.0521 82.6518 24.7881C83.0625 24.5241 83.3851 24.1648 83.6198 23.7101C83.8545 23.2554 83.9645 22.7348 83.9498 22.1481C83.9645 21.5614 83.8545 21.0408 83.6198 20.5861C83.3851 20.1168 83.0625 19.7501 82.6518 19.4861C82.2411 19.2221 81.7718 19.0901 81.2438 19.0901C80.7158 19.0901 80.2391 19.2221 79.8138 19.4861C79.4031 19.7501 79.0805 20.1168 78.8458 20.5861C78.6111 21.0408 78.5011 21.5614 78.5158 22.1481C78.5011 22.7348 78.6111 23.2554 78.8458 23.7101C79.0805 24.1648 79.4031 24.5241 79.8138 24.7881C80.2391 25.0521 80.7158 25.1841 81.2438 25.1841ZM89.1776 28.0001V16.3181H92.5216L92.6316 18.6941L91.9276 18.9581C92.0889 18.4301 92.3749 17.9534 92.7856 17.5281C93.2109 17.0881 93.7169 16.7361 94.3036 16.4721C94.8902 16.2081 95.5062 16.0761 96.1516 16.0761C97.0316 16.0761 97.7722 16.2594 98.3736 16.6261C98.9749 16.9781 99.4296 17.5134 99.7376 18.2321C100.046 18.9361 100.2 19.8014 100.2 20.8281V28.0001H96.6576V21.1141C96.6576 20.6448 96.5916 20.2561 96.4596 19.9481C96.3276 19.6401 96.1222 19.4128 95.8436 19.2661C95.5796 19.1048 95.2496 19.0314 94.8536 19.0461C94.5456 19.0461 94.2596 19.0974 93.9956 19.2001C93.7316 19.2881 93.5042 19.4274 93.3136 19.6181C93.1229 19.7941 92.9689 19.9994 92.8516 20.2341C92.7489 20.4688 92.6976 20.7254 92.6976 21.0041V28.0001H90.9596C90.5489 28.0001 90.1969 28.0001 89.9036 28.0001C89.6102 28.0001 89.3682 28.0001 89.1776 28.0001ZM103.849 33.0601L106.511 26.7901L106.555 28.5941L100.923 16.3181H104.905L107.368 22.1921C107.501 22.4854 107.626 22.8008 107.743 23.1381C107.86 23.4754 107.949 23.7981 108.007 24.1061L107.523 24.3921C107.611 24.1721 107.707 23.9008 107.809 23.5781C107.926 23.2408 108.05 22.8814 108.183 22.5001L110.339 16.3181H114.343L109.371 28.0001L107.347 33.0601H103.849Z" fill="white"/>
    <path opacity="0.6" d="M113 0H0V8H113V0Z" fill="white"/>
    <path opacity="0.6" d="M8 0H0V26H8V0Z" fill="white"/>
    <path d="M120 41C122.761 41 125 38.7614 125 36C125 33.2386 122.761 31 120 31C117.239 31 115 33.2386 115 36C115 38.7614 117.239 41 120 41Z" fill="white" fill-opacity="0.6"/>
    <path opacity="0.6" d="M125 36H22V43H125V36Z" fill="white"/>
</svg>
